<?xml version="1.0" encoding="UTF-8"?>
<svg width="100" height="100" viewBox="0 0 100 100" xmlns="http://www.w3.org/2000/svg">
    <title>UK Lighthouses Favicon</title>
    <path d="M65.2,93.3H34.8c-1.1,0-2-0.9-2-2v-7.8c0-1.1,0.9-2,2-2h30.4c1.1,0,2,0.9,2,2v7.8C67.2,92.4,66.3,93.3,65.2,93.3z M50,6.7
    c-1.1,0-2,0.9-2,2v4.9c0,1.1,0.9,2,2,2s2-0.9,2-2V8.7C52,7.6,51.1,6.7,50,6.7z M61.2,25.8L50,19.1l-11.2,6.7c-0.7,0.4-1.1,1.2-1.1,2
    v45.7c0,1.1,0.9,2,2,2h20.6c1.1,0,2-0.9,2-2V27.8C62.3,27,61.9,26.2,61.2,25.8z M45.9,35.6h8.2v8.2h-8.2V35.6z M45.9,51.9h8.2v8.2
    h-8.2V51.9z" fill="rgba(112, 83, 53, 0.9)"/></svg> 